<svg xmlns="http://www.w3.org/2000/svg" xmlns:xlink="http://www.w3.org/1999/xlink" version="1.1" preserveAspectRatio="none" x="0px" y="0px" viewBox="0 0 100 100"><defs><g id="a"><path fill="#000000" stroke="none" d=" M 89.45 25.95 L 89.45 25.9 Q 86.825390625 16.542578125 77.9 15.65 76.658203125 15.5216796875 75.35 15.55 75.32578125 15.39453125 75.25 15.2 72.7376953125 9.7376953125 66.75 9.8 L 66.7 9.8 Q 64.7548828125 9.85546875 62.6 10.5 62.57421875 10.5115234375 62.5 10.5 L 62 10.7 Q 61.759765625 10.828125 61.6 11.05 58.487890625 8.806640625 54.95 8.5 52.6498046875 8.26484375 48.75 9.55 L 48.7 9.55 Q 38.3041015625 13.2521484375 38.05 21.85 L 38.05 21.85 Q 30.415234375 22.188671875 26.25 27.45 L 26.25 27.5 Q 24.059375 30.337109375 23.45 33.1 L 23.45 33.15 Q 21.37109375 41.789453125 24.55 47 L 24.55 47 Q 27.5587890625 52.024609375 32.9 53.1 36.585546875 68.94375 51 66.65 57.8841796875 65.6076171875 63.15 61.7 72.398046875 66.148046875 79.2 63.7 82.80859375 62.4619140625 85.35 59.7 L 85.35 59.75 Q 91.2630859375 53.69140625 89.35 46 88.787890625 43.6197265625 87.4 41.35 87.3873046875 41.351171875 87.35 41.3 L 86.7 40.35 Q 91.75390625 34.659375 89.45 25.95 M 29.5 79.5 Q 29.5 77.64296875 28.15 76.3 26.80703125 74.95 24.95 74.95 23.09296875 74.95 21.75 76.3 20.4 77.64296875 20.4 79.5 20.4 81.35703125 21.75 82.7 23.09296875 84.05 24.95 84.05 26.80703125 84.05 28.15 82.7 29.5 81.35703125 29.5 79.5 M 19.15 80.4 Q 19.144921875 78.987890625 18.15 78 17.162109375 77.005078125 15.75 77 14.337890625 77.005078125 13.35 78 12.355078125 78.987890625 12.35 80.4 12.355078125 81.812109375 13.35 82.8 14.337890625 83.794921875 15.75 83.8 17.162109375 83.794921875 18.15 82.8 19.144921875 81.812109375 19.15 80.4 M 34.9 66.4 Q 32.3921875 66.3978515625 30.6 68.1 L 30.55 68.15 Q 28.8478515625 69.9421875 28.85 72.45 28.8572265625 74.9642578125 30.6 76.7 32.3908203125 78.4978515625 34.9 78.5 37.4103515625 78.5013671875 39.15 76.7 L 39.15 76.7 Q 40.9513671875 74.9603515625 40.95 72.45 40.9478515625 69.9408203125 39.15 68.15 37.4142578125 66.4072265625 34.9 66.4 Z"/></g></defs><g transform="matrix( 1, 0, 0, 1, 0,0) "><use xlink:href="#a"/></g></svg>